<?xml version="1.0" standalone="no"?>
<!DOCTYPE svg PUBLIC "-//W3C//DTD SVG 1.1//EN" "http://www.w3.org/Graphics/SVG/1.1/DTD/svg11.dtd">
<svg width="132" height="132" version="1.1" xmlns="http://www.w3.org/2000/svg">
  <title>8 by 8 orthogonal maze</title>
  <desc>8 by 8 orthogonal maze generated by The Maze Generator Website (http://www.mazegenerator.net/).</desc>
  <g fill="none" stroke="#000000" stroke-width="2" stroke-linecap="square" stroke-linejoin="round">
    <polyline points="10,74 10,90 26,90 26,122 10,122 10,106" />
    <polyline points="58,10 58,26 26,26" />
    <polyline points="42,26 42,58" />
    <polyline points="42,42 106,42 106,10 122,10 122,122" />
    <polyline points="122,74 106,74 106,58 90,58 90,74" />
    <polyline points="106,26 90,26 90,10 74,10 74,26" />
  </g>
  <polyline fill="none" stroke="#ff0000" stroke-width="2" stroke-linecap="square" stroke-linejoin="round" points="58,2 58,10 10,10 10,42 26,42 26,58 10,58 10,74 42,74 42,122 106,122 106,90 90,90 90,106 58,106 58,90 74,90 74,82" />
</svg>
